<?xml version="1.0" encoding="utf-8"?>
<!-- Svg Vector Icons : http://www.onlinewebfonts.com/icon -->
<!DOCTYPE svg PUBLIC "-//W3C//DTD SVG 1.1//EN" "http://www.w3.org/Graphics/SVG/1.1/DTD/svg11.dtd">
<svg version="1.1" xmlns="http://www.w3.org/2000/svg" xmlns:xlink="http://www.w3.org/1999/xlink" x="0px" y="0px" viewBox="0 0 256 256" enable-background="new 0 0 256 256" xml:space="preserve">
<metadata> Svg Vector Icons : http://www.onlinewebfonts.com/icon </metadata>
<g><g><g><path fill="#000000" d="M119.4,10.4c-6.3,0.6-11.3,1.3-15.9,2.3c-45.3,9.6-81.5,45.8-91.1,91.1c-1.9,9-2.3,13.8-2.3,24.4c0,10.6,0.4,15.4,2.3,24.4c7.9,37.3,34.1,69.1,69.5,84.2c9.5,4.1,18.6,6.6,30,8.4c7.5,1.1,24.4,1.1,31.9,0c21.6-3.4,38.2-10.4,55.8-23.5c5.7-4.3,17.6-16.1,21.8-21.8c15.3-20.5,23.1-41.8,24.4-66.5l0.3-6.2l-58.5-58.5L129,10l-4,0.1C122.8,10.1,120.2,10.3,119.4,10.4z M125,73.2c0,52.4,0,57.1,0.8,57.9c0.7,0.8,3.1,0.8,57.4,0.8h56.6v2.5c0,7.3-2.6,20.8-5.9,30.4c-13.8,40.3-49.1,69-91.7,74.6c-7.3,0.9-21.5,0.9-28.8,0c-11.7-1.5-23.8-5.1-33.7-9.8C51.3,216,30.8,192.7,21,162.8c-5.8-17.6-6.9-40.2-2.8-58.8C21.9,86.9,29.7,70.6,40.7,57c17-20.9,42.8-35.7,69.3-39.7c7-1,7.3-1.1,11.4-1.2l3.6,0V73.2L125,73.2z M183.4,73.4c28.7,28.7,52.1,52.3,52.1,52.5c0,0.2-23.6,0.3-52.3,0.2l-52.4-0.1l-0.1-52.4c0-28.8,0-52.3,0.2-52.3C131.2,21.3,154.8,44.8,183.4,73.4z"/><path fill="#000000" d="M72,156.8c-3.3,0.9-6.4,3-7.8,5.1c-1,1.5-1.3,2.6-1.4,5.3c-0.1,1.9,0,4.1,0.4,5.1c0.8,2.5,4.5,5.6,8.6,7.1c6.3,2.3,7.7,3,9.3,4.7c3,3.1,1.8,7.5-2.3,8.6c-3.4,0.9-8.9,0.3-12.9-1.4l-1.9-0.8l-1,2.9c-0.6,1.5-1,3-1,3.2c0,0.6,5.8,2.2,9.5,2.7c3.7,0.5,9,0.1,11.9-0.9c5.8-2.2,8.5-8.2,6.7-14.8c-0.8-3-4.6-6.4-9.4-8.2c-7.5-2.9-9.6-4.3-10.1-6.7c-0.6-3.5,2-5.9,6.4-5.9c2.2,0,4.2,0.4,8.7,1.6c0.8,0.3,1.1-0.1,2-2.4c1-2.6,1-2.7,0.2-3.3C85.1,156.8,75.9,155.7,72,156.8z"/><path fill="#000000" d="M111.5,156.7c-3.5,0.7-7.3,2.8-9.8,5.2c-8.3,8.2-8.1,25.7,0.5,33.3c1.8,1.6,6.6,3.6,9.9,4.1c5.2,0.8,15.3-0.8,16-2.6c0.2-0.5-1-5.1-1.5-5.7c0,0-1.3,0.3-2.9,0.9c-4.1,1.4-10.5,1.4-13.4,0c-2.5-1.2-4.3-3.1-5.7-6.1c-0.8-1.8-1-3-1-7.7c0-5.2,0.1-5.8,1.4-8.3c3-6.2,10.4-8.4,18.4-5.4c1.4,0.5,2.6,0.8,2.7,0.7c0,0,0.6-1.4,1.1-3c1.2-3.2,1.3-3.1-3.2-4.5C120.6,156.5,114.4,156.1,111.5,156.7z"/><path fill="#000000" d="M142.8,156.9c-3.4,0.9-6.5,3.3-7.9,5.8c-1.3,2.4-1.5,7.5-0.4,10c1,2.5,4.4,5.2,8.2,6.7c6.4,2.4,7.8,3.1,9.4,4.7c3,3.1,1.8,7.5-2.3,8.6c-3.4,0.9-8.9,0.3-12.9-1.4l-1.9-0.8l-1,2.9c-0.6,1.5-1,3-1,3.2c0,0.1,1.3,0.7,3,1.3c8.1,2.7,16.6,2.2,21.5-1.1c3.6-2.5,5.1-7.9,3.7-13.1c-0.8-3-4.6-6.4-9.4-8.2c-7.5-2.9-9.6-4.3-10.1-6.7c-0.6-3.5,2-5.9,6.4-5.9c2.2,0,4.2,0.4,8.7,1.6c0.8,0.3,1.1-0.1,2-2.4c1-2.6,1-2.7,0.2-3.3C156.1,156.7,147.1,155.7,142.8,156.9z"/><path fill="#000000" d="M175.2,156.9c-3.1,0.9-6.3,3-7.6,5.1c-2.1,3.5-2,9.2,0.2,12.5c1.6,2.3,3.6,3.5,9.2,5.6c5.4,2.1,6.7,2.9,8.3,5.2c2,2.9,0.5,6.5-3.1,7.5c-3.4,0.9-8.9,0.3-12.9-1.4l-1.9-0.8l-1,2.9c-0.6,1.5-1,3-1,3.2c0,0.6,5.9,2.2,9.7,2.8c6.5,0.8,12.7-0.6,15.8-3.6c2.1-2.1,3.1-4.7,3.1-8.2c0-5.8-3.1-9.6-10-12.2c-7.9-3-9.6-4.3-10-7.4c-0.2-1.5,0-2.1,1.2-3.4c1.2-1.4,1.7-1.5,4.4-1.7c2.7-0.2,4.6,0.1,9.6,1.5c0.8,0.3,1.1-0.1,2-2.4c0.9-2.6,1-2.8,0.2-3.3C188.5,156.7,179.5,155.7,175.2,156.9z"/></g></g></g>
</svg>